C:\Users\r0593348\3dpredictsim\Results\Batchsim_tmt_linear\Pog_s1_tmt_aCst_d00_k800_ig24_act_GRF.mot
nRows=12
nColumns=19

name C:\Users\r0593348\3dpredictsim\Results\Batchsim_tmt_linear\Pog_s1_tmt_aCst_d00_k800_ig24_act_GRF.mot
datacolumns 19
datarows 12
range 0.6420767035 0.7833335782
endheader
time 	ground_force_vx	ground_force_vy	ground_force_vz	ground_force_px	ground_force_py	ground_force_pz	1_ground_force_vx	1_ground_force_vy	1_ground_force_vz	1_ground_force_px	1_ground_force_py	1_ground_force_pz	ground_torque_x	ground_torque_y	ground_torque_z	1_ground_torque_x	1_ground_torque_y	1_ground_torque_z
        0.6420767035	      106.5946501001	      430.9805550295	       -0.4275435738	        0.4317630815	        0.0000000000	        0.0336207749	      -28.9565555678	       22.7615235247	       -6.6977680053	        1.0124298793	        0.0000000000	       -0.0513405049	        0.0000000000	        0.0000000000	        0.0000000000	        0.0000000000	        0.0000000000	        0.0000000000	
        0.6549182375	       70.8044683937	      329.7384166609	        6.1262353803	        0.4399839865	        0.0000000000	        0.0305444886	     -105.0111724741	      107.6255730025	      -36.7204839129	        1.0204122486	        0.0000000000	       -0.0495303797	        0.0000000000	        0.0000000000	        0.0000000000	        0.0000000000	        0.0000000000	        0.0000000000	
        0.6677597716	       40.1503611547	      227.8346601710	       12.0008647903	        0.4530762091	        0.0000000000	        0.0251464136	      -54.4748159223	      313.1225257964	      -11.9380130249	        1.0257149799	        0.0000000000	       -0.0477207193	        0.0000000000	        0.0000000000	        0.0000000000	        0.0000000000	        0.0000000000	        0.0000000000	
        0.6806013057	       26.0268235538	      181.6632324753	       12.5616144478	        0.4578768308	        0.0000000000	        0.0228242372	      -61.9128658856	      537.7647014533	        6.9322160842	        1.0285415025	        0.0000000000	       -0.0475607107	        0.0000000000	        0.0000000000	        0.0000000000	        0.0000000000	        0.0000000000	        0.0000000000	
        0.6934428397	       19.7965503563	      133.0663749076	       15.9534444201	        0.4582157974	        0.0000000000	        0.0231827885	     -114.8025156087	      754.6268316229	       15.1783538254	        1.0369750716	        0.0000000000	       -0.0494725762	        0.0000000000	        0.0000000000	        0.0000000000	        0.0000000000	        0.0000000000	        0.0000000000	
        0.7062843738	        6.3113832765	       74.5497968945	       15.9577728607	        0.4581350062	        0.0000000000	        0.0236618989	     -152.0988439073	      895.6298887416	       20.0637547382	        1.0455262148	        0.0000000000	       -0.0514943077	        0.0000000000	        0.0000000000	        0.0000000000	        0.0000000000	        0.0000000000	        0.0000000000	
        0.7191259079	       -8.7903094525	       14.2259826762	        4.1436100530	        0.4541476800	        0.0000000000	        0.0235164489	     -156.3611205960	      916.8394723238	       20.9066933130	        1.0509761065	        0.0000000000	       -0.0525928581	        0.0000000000	        0.0000000000	        0.0000000000	        0.0000000000	        0.0000000000	        0.0000000000	
        0.7319674419	        0.5053347523	       -0.4097240572	        0.0176599515	        0.0000000000	        0.0000000000	        0.0000000000	     -138.9636450671	      875.0342082491	       20.0380330169	        1.0549653546	        0.0000000000	       -0.0532132507	        0.0000000000	        0.0000000000	        0.0000000000	        0.0000000000	        0.0000000000	        0.0000000000	
        0.7448089760	       -6.2090121679	        4.3846992312	       -0.3425384680	        0.0000000000	        0.0000000000	        0.0000000000	     -122.1659680016	      812.8880912930	       18.4194964336	        1.0587104907	        0.0000000000	       -0.0535169039	        0.0000000000	        0.0000000000	        0.0000000000	        0.0000000000	        0.0000000000	        0.0000000000	
        0.7576505101	       -5.1895288495	        3.2220519267	       -0.3619192651	        0.0000000000	        0.0000000000	        0.0000000000	     -107.7211220931	      766.7504035936	       17.6261074373	        1.0626338917	        0.0000000000	       -0.0535230824	        0.0000000000	        0.0000000000	        0.0000000000	        0.0000000000	        0.0000000000	        0.0000000000	
        0.7704920441	       -3.5433265744	        2.0186459668	       -0.2610651551	        0.0000000000	        0.0000000000	        0.0000000000	      -94.9678870468	      731.8141270654	       17.4715428917	        1.0671014700	        0.0000000000	       -0.0533551139	        0.0000000000	        0.0000000000	        0.0000000000	        0.0000000000	        0.0000000000	        0.0000000000	
        0.7833335782	       -2.7172519860	        1.4494424217	       -0.2084518137	        0.0000000000	        0.0000000000	        0.0000000000	      -85.1533184691	      705.5097299832	       18.0198458524	        1.0723577501	        0.0000000000	       -0.0529347742	        0.0000000000	        0.0000000000	        0.0000000000	        0.0000000000	        0.0000000000	        0.0000000000	
